<svg xmlns="http://www.w3.org/2000/svg" xmlns:xlink="http://www.w3.org/1999/xlink" width="500" zoomAndPan="magnify" viewBox="0 0 375 374.999991" height="500" preserveAspectRatio="xMidYMid meet" version="1.0"><defs><clipPath id="a8d6043e57"><path d="M 129.5625 133.277344 L 245.8125 133.277344 L 245.8125 227.777344 L 129.5625 227.777344 Z M 129.5625 133.277344 " clip-rule="nonzero"/></clipPath><clipPath id="13317cca3a"><path d="M 231.773438 185.316406 C 231.773438 181.429688 234.917969 178.304688 238.800781 178.304688 C 242.683594 178.304688 245.8125 181.449219 245.8125 185.316406 C 245.8125 189.203125 242.667969 192.332031 238.800781 192.332031 C 237.589844 192.332031 236.433594 192.023438 235.441406 191.480469 L 230.382812 198.929688 C 231.574219 199.980469 232.332031 201.515625 232.332031 203.25 C 232.332031 206.414062 229.765625 208.980469 226.605469 208.980469 C 223.441406 208.980469 220.878906 206.414062 220.878906 203.25 C 220.878906 201.082031 222.085938 199.183594 223.875 198.226562 L 222.449219 194.609375 C 222.125 194.683594 221.78125 194.71875 221.4375 194.71875 C 218.925781 194.71875 216.902344 192.675781 216.902344 190.179688 C 216.902344 187.667969 218.945312 185.625 221.4375 185.625 C 221.851562 185.625 222.269531 185.679688 222.648438 185.789062 L 225.59375 179.246094 C 224.871094 178.683594 224.402344 177.816406 224.402344 176.839844 C 224.402344 175.160156 225.753906 173.804688 227.4375 173.804688 C 228.175781 173.804688 228.84375 174.054688 229.371094 174.507812 L 234.644531 170.496094 C 234.265625 169.808594 234.050781 168.996094 234.050781 168.144531 C 234.050781 166.734375 234.664062 165.453125 235.621094 164.566406 L 232.367188 159.773438 C 231.753906 160.0625 231.066406 160.226562 230.34375 160.226562 C 228.648438 160.226562 227.164062 159.324219 226.351562 157.984375 L 221.402344 160.0625 C 221.402344 160.136719 221.417969 160.210938 221.417969 160.261719 C 221.417969 161.402344 220.589844 162.34375 219.503906 162.523438 L 218.835938 167.332031 C 220.496094 167.855469 221.691406 169.410156 221.691406 171.234375 C 221.691406 173.496094 219.847656 175.339844 217.589844 175.339844 C 216.070312 175.339844 214.753906 174.507812 214.03125 173.277344 L 208.15625 175.449219 C 208.15625 175.464844 208.15625 175.484375 208.15625 175.519531 C 208.15625 176.730469 207.183594 177.707031 205.972656 177.707031 C 205.84375 177.707031 205.699219 177.691406 205.574219 177.671875 L 202.59375 183.09375 C 202.953125 183.421875 203.261719 183.816406 203.460938 184.269531 L 211.699219 182.535156 C 211.824219 181.449219 212.746094 180.601562 213.867188 180.601562 C 215.078125 180.601562 216.054688 181.574219 216.054688 182.789062 C 216.054688 183.90625 215.203125 184.828125 214.121094 184.957031 L 211.699219 196.527344 C 214.265625 197.355469 216.105469 199.761719 216.105469 202.601562 C 216.105469 206.125 213.253906 209 209.710938 209 C 209.601562 209 209.496094 209 209.386719 209 L 208.429688 214.929688 C 209.296875 215.324219 209.910156 216.210938 209.910156 217.242188 C 209.910156 218.398438 209.152344 219.355469 208.101562 219.683594 L 208.195312 224.164062 C 208.863281 224.417969 209.351562 225.085938 209.351562 225.847656 C 209.351562 226.839844 208.535156 227.65625 207.542969 227.65625 C 206.550781 227.65625 205.734375 226.839844 205.734375 225.847656 C 205.734375 225.664062 205.773438 225.484375 205.828125 225.304688 L 202.664062 222.664062 C 202.265625 222.9375 201.78125 223.097656 201.238281 223.097656 C 199.847656 223.097656 198.726562 221.976562 198.726562 220.585938 C 198.726562 219.59375 199.304688 218.742188 200.136719 218.328125 L 199.59375 215.324219 C 199.558594 215.324219 199.503906 215.324219 199.464844 215.324219 C 196.9375 215.324219 194.878906 213.265625 194.878906 210.734375 C 194.878906 208.203125 196.9375 206.144531 199.464844 206.144531 C 200.675781 206.144531 201.761719 206.613281 202.574219 207.371094 L 204.328125 205.980469 C 203.695312 204.984375 203.332031 203.828125 203.332031 202.5625 C 203.332031 201.351562 203.675781 200.214844 204.273438 199.238281 L 199.792969 195.800781 C 199.449219 196.039062 199.03125 196.183594 198.582031 196.183594 C 198.09375 196.183594 197.640625 196.019531 197.28125 195.75 L 194.445312 197.71875 C 194.949219 198.640625 195.21875 199.6875 195.21875 200.808594 C 195.21875 204.390625 192.328125 207.28125 188.753906 207.28125 C 185.71875 207.28125 183.1875 205.203125 182.484375 202.382812 L 177.640625 203.050781 C 177.585938 205.347656 175.707031 207.191406 173.394531 207.191406 C 171.046875 207.191406 169.148438 205.292969 169.148438 202.941406 C 169.148438 200.59375 171.046875 198.695312 173.394531 198.695312 C 173.828125 198.695312 174.242188 198.765625 174.621094 198.875 L 179.789062 188.410156 C 178.472656 187.523438 177.566406 186.078125 177.40625 184.414062 L 173.140625 184.269531 C 172.835938 185.066406 172.074219 185.625 171.171875 185.625 C 170.9375 185.625 170.71875 185.589844 170.503906 185.515625 L 167.089844 189.945312 C 168.15625 190.996094 168.804688 192.441406 168.804688 194.050781 C 168.804688 197.230469 166.222656 199.816406 163.042969 199.816406 C 160.367188 199.816406 158.109375 197.972656 157.457031 195.496094 L 153.5 196.019531 C 153.429688 198.277344 151.566406 200.105469 149.292969 200.105469 C 146.960938 200.105469 145.082031 198.226562 145.082031 195.894531 C 145.082031 193.6875 146.78125 191.878906 148.949219 191.699219 L 149.328125 187.070312 C 148.570312 186.746094 148.042969 185.988281 148.042969 185.101562 C 148.042969 183.925781 149.003906 182.949219 150.195312 182.949219 C 150.464844 182.949219 150.699219 183.003906 150.9375 183.078125 L 159.011719 173.132812 C 158.8125 172.808594 158.6875 172.410156 158.6875 171.996094 C 158.6875 171.417969 158.921875 170.890625 159.285156 170.511719 L 158.035156 168.089844 C 157.402344 168.324219 156.734375 168.453125 156.03125 168.453125 C 155.019531 168.453125 154.0625 168.179688 153.25 167.730469 L 148.386719 174.472656 C 148.894531 175.03125 149.203125 175.792969 149.203125 176.621094 C 149.203125 178.394531 147.753906 179.839844 145.984375 179.839844 C 145.625 179.839844 145.261719 179.785156 144.9375 179.660156 L 139.859375 187.9375 C 141.015625 188.878906 141.738281 190.308594 141.738281 191.917969 C 141.738281 194.753906 139.445312 197.050781 136.609375 197.050781 C 133.769531 197.050781 131.476562 194.753906 131.476562 191.917969 C 131.476562 189.601562 133.011719 187.648438 135.109375 187 L 134.710938 184.558594 C 134.675781 184.558594 134.65625 184.558594 134.621094 184.558594 C 131.980469 184.558594 129.851562 182.425781 129.851562 179.785156 C 129.851562 177.164062 131.964844 175.03125 134.585938 175.015625 L 134.875 172.898438 C 131.820312 172.15625 129.542969 169.390625 129.542969 166.101562 C 129.542969 162.25 132.667969 159.125 136.515625 159.125 C 139.714844 159.125 142.425781 161.277344 143.238281 164.222656 L 150.265625 162.976562 C 150.265625 162.867188 150.265625 162.777344 150.265625 162.667969 C 150.265625 161.691406 150.519531 160.769531 150.9375 159.957031 L 145.75 156.324219 C 145.171875 156.863281 144.394531 157.191406 143.546875 157.191406 C 141.757812 157.191406 140.292969 155.726562 140.292969 153.9375 C 140.292969 152.148438 141.757812 150.683594 143.546875 150.683594 C 145.335938 150.683594 146.796875 152.148438 146.796875 153.9375 C 146.796875 154.386719 146.707031 154.804688 146.546875 155.183594 L 151.730469 158.816406 C 152.472656 157.984375 153.464844 157.371094 154.566406 157.082031 L 154.550781 151.820312 C 152.597656 151.496094 151.117188 149.816406 151.117188 147.773438 C 151.117188 145.511719 152.960938 143.667969 155.21875 143.667969 C 156.554688 143.667969 157.730469 144.300781 158.46875 145.277344 L 165.027344 141.84375 C 164.867188 141.355469 164.777344 140.847656 164.777344 140.304688 C 164.777344 137.722656 166.871094 135.605469 169.472656 135.605469 C 172.058594 135.605469 174.171875 137.703125 174.171875 140.304688 C 174.171875 142.023438 173.25 143.542969 171.859375 144.355469 L 174.027344 149.707031 C 174.371094 149.632812 174.714844 149.578125 175.09375 149.578125 C 175.941406 149.578125 176.753906 149.816406 177.441406 150.230469 L 182.355469 144.265625 C 181.234375 143.109375 180.53125 141.535156 180.53125 139.800781 C 180.53125 136.273438 183.386719 133.402344 186.925781 133.402344 C 190.449219 133.402344 193.324219 136.257812 193.324219 139.800781 C 193.324219 141.371094 192.746094 142.820312 191.804688 143.921875 L 196.683594 149.054688 C 196.972656 148.910156 197.296875 148.839844 197.640625 148.839844 C 197.730469 148.839844 197.824219 148.839844 197.894531 148.855469 L 200.496094 143.234375 C 199.429688 142.492188 198.726562 141.265625 198.726562 139.855469 C 198.726562 137.59375 200.570312 135.75 202.828125 135.75 C 205.085938 135.75 206.929688 137.59375 206.929688 139.855469 C 206.929688 140.359375 206.839844 140.847656 206.675781 141.28125 L 210.8125 143.6875 C 211.84375 142.332031 213.488281 141.445312 215.3125 141.445312 C 218.4375 141.445312 220.96875 143.976562 220.96875 147.101562 C 220.96875 147.863281 220.824219 148.585938 220.550781 149.234375 L 226.660156 152.652344 C 227.507812 151.550781 228.84375 150.828125 230.363281 150.828125 C 232.945312 150.828125 235.042969 152.925781 235.042969 155.507812 C 235.042969 156.863281 234.464844 158.09375 233.542969 158.945312 L 236.796875 163.734375 C 237.425781 163.425781 238.148438 163.246094 238.910156 163.246094 C 241.582031 163.246094 243.75 165.414062 243.75 168.089844 C 243.75 170.765625 241.582031 172.933594 238.910156 172.933594 C 237.589844 172.933594 236.378906 172.410156 235.511719 171.542969 L 230.238281 175.554688 C 230.398438 175.9375 230.488281 176.351562 230.488281 176.785156 C 230.488281 178.46875 229.132812 179.824219 227.453125 179.824219 C 227.253906 179.824219 227.054688 179.804688 226.875 179.769531 L 223.929688 186.3125 C 225.175781 187.125 226.007812 188.535156 226.007812 190.125 C 226.007812 191.789062 225.105469 193.253906 223.769531 194.050781 L 225.195312 197.664062 C 225.664062 197.539062 226.136719 197.484375 226.640625 197.484375 C 227.582031 197.484375 228.484375 197.71875 229.261719 198.117188 L 234.320312 190.667969 C 232.785156 189.386719 231.808594 187.449219 231.808594 185.28125 Z M 155.957031 156.9375 L 155.941406 151.839844 C 157.875 151.515625 159.335938 149.816406 159.335938 147.789062 C 159.335938 147.355469 159.265625 146.921875 159.140625 146.523438 L 165.699219 143.089844 C 166.546875 144.265625 167.9375 145.023438 169.492188 145.023438 C 169.871094 145.023438 170.234375 144.988281 170.59375 144.898438 L 172.761719 150.25 C 171.425781 151.042969 170.523438 152.507812 170.523438 154.1875 C 170.523438 156.214844 171.839844 157.929688 173.664062 158.546875 L 172.691406 164.332031 C 172.5625 164.332031 172.4375 164.3125 172.292969 164.3125 C 168.714844 164.3125 165.824219 167.203125 165.824219 170.785156 C 165.824219 174.363281 168.714844 177.253906 172.292969 177.253906 C 175.6875 177.253906 178.472656 174.632812 178.742188 171.308594 L 182.484375 171.199219 C 182.789062 172.011719 183.566406 172.59375 184.488281 172.59375 C 185.136719 172.59375 185.71875 172.300781 186.113281 171.832031 L 191.011719 173.785156 C 190.957031 174.074219 190.921875 174.363281 190.921875 174.652344 C 190.921875 176.929688 192.78125 178.792969 195.058594 178.792969 C 197.335938 178.792969 199.195312 176.929688 199.195312 174.652344 C 199.195312 173.660156 198.835938 172.738281 198.257812 172.011719 L 203.441406 166.011719 C 204.34375 166.609375 205.429688 166.96875 206.585938 166.96875 C 209.710938 166.96875 212.242188 164.4375 212.242188 161.3125 C 212.242188 158.183594 209.710938 155.652344 206.585938 155.652344 C 205.410156 155.652344 204.308594 156.015625 203.40625 156.628906 L 199.539062 152.199219 C 199.738281 151.875 199.847656 151.476562 199.847656 151.0625 C 199.847656 150.429688 199.574219 149.851562 199.140625 149.433594 L 201.726562 143.8125 C 202.070312 143.902344 202.429688 143.957031 202.792969 143.957031 C 204.054688 143.957031 205.195312 143.378906 205.933594 142.476562 L 210.074219 144.878906 C 209.785156 145.566406 209.621094 146.308594 209.621094 147.101562 C 209.621094 150.230469 212.152344 152.761719 215.277344 152.761719 C 215.582031 152.761719 215.890625 152.742188 216.179688 152.6875 L 217.804688 158.3125 C 217.191406 158.726562 216.792969 159.414062 216.792969 160.210938 C 216.792969 161.132812 217.335938 161.910156 218.09375 162.289062 L 217.425781 167.097656 C 215.222656 167.167969 213.453125 168.976562 213.453125 171.199219 C 213.453125 171.453125 213.46875 171.707031 213.523438 171.960938 L 207.652344 174.128906 C 207.253906 173.621094 206.640625 173.316406 205.953125 173.316406 C 204.742188 173.316406 203.765625 174.292969 203.765625 175.503906 C 203.765625 176.082031 203.984375 176.585938 204.34375 176.984375 L 201.363281 182.40625 C 201.058594 182.316406 200.730469 182.261719 200.40625 182.261719 C 198.5625 182.261719 197.082031 183.746094 197.082031 185.589844 C 197.082031 187.433594 198.5625 188.914062 200.40625 188.914062 C 202.25 188.914062 203.730469 187.433594 203.730469 185.589844 L 211.96875 183.835938 C 212.167969 184.160156 212.421875 184.433594 212.746094 184.613281 L 210.324219 196.183594 C 210.125 196.164062 209.910156 196.144531 209.691406 196.144531 C 207.886719 196.144531 206.242188 196.90625 205.066406 198.117188 L 200.585938 194.683594 C 200.660156 194.464844 200.714844 194.210938 200.714844 193.976562 C 200.714844 192.765625 199.738281 191.789062 198.527344 191.789062 C 197.316406 191.789062 196.339844 192.765625 196.339844 193.976562 C 196.339844 194.195312 196.378906 194.394531 196.429688 194.589844 L 193.59375 196.5625 C 192.402344 195.1875 190.648438 194.320312 188.699219 194.320312 C 185.121094 194.320312 182.230469 197.210938 182.230469 200.792969 C 182.230469 200.863281 182.230469 200.9375 182.230469 200.992188 L 177.386719 201.660156 C 177.117188 200.773438 176.539062 199.996094 175.796875 199.472656 L 180.964844 189.003906 C 181.507812 189.1875 182.101562 189.296875 182.71875 189.296875 C 185.699219 189.296875 188.121094 186.871094 188.121094 183.890625 C 188.121094 180.90625 185.699219 178.503906 182.71875 178.503906 C 180.042969 178.503906 177.820312 180.457031 177.386719 183.023438 L 173.125 182.878906 C 172.851562 182.011719 172.058594 181.394531 171.117188 181.394531 C 169.960938 181.394531 169.003906 182.335938 169.003906 183.511719 C 169.003906 183.945312 169.128906 184.324219 169.347656 184.667969 L 165.933594 189.097656 C 165.066406 188.570312 164.054688 188.28125 162.988281 188.28125 C 159.808594 188.28125 157.222656 190.867188 157.222656 194.050781 C 157.222656 194.066406 157.222656 194.101562 157.222656 194.121094 L 153.265625 194.644531 C 152.832031 193.253906 151.695312 192.152344 150.265625 191.789062 L 150.648438 187.160156 C 151.585938 186.925781 152.273438 186.078125 152.273438 185.082031 C 152.273438 184.667969 152.144531 184.269531 151.949219 183.945312 L 160.023438 174 C 160.257812 174.09375 160.511719 174.128906 160.765625 174.128906 C 161.957031 174.128906 162.914062 173.171875 162.914062 171.976562 C 162.914062 170.800781 161.957031 169.824219 160.765625 169.824219 C 160.65625 169.824219 160.546875 169.824219 160.457031 169.84375 L 159.210938 167.421875 C 160.730469 166.390625 161.742188 164.636719 161.742188 162.648438 C 161.742188 159.46875 159.15625 156.882812 155.976562 156.882812 C 155.941406 156.882812 155.921875 156.882812 155.90625 156.882812 Z M 174.042969 164.566406 L 175.019531 158.78125 C 175.039062 158.78125 175.074219 158.78125 175.09375 158.78125 C 176.753906 158.78125 178.199219 157.894531 179.011719 156.574219 L 185.699219 159.339844 C 185.609375 159.722656 185.554688 160.101562 185.554688 160.515625 C 185.554688 163.15625 187.6875 165.289062 190.324219 165.289062 C 192.960938 165.289062 195.09375 163.15625 195.09375 160.515625 C 195.09375 159.234375 194.589844 158.074219 193.773438 157.207031 L 196.902344 153.175781 C 197.136719 153.265625 197.390625 153.304688 197.640625 153.304688 C 197.949219 153.304688 198.238281 153.25 198.507812 153.121094 L 202.375 157.550781 C 201.472656 158.546875 200.929688 159.882812 200.929688 161.328125 C 200.929688 162.792969 201.492188 164.113281 202.394531 165.125 L 197.207031 171.128906 C 196.574219 170.746094 195.851562 170.53125 195.058594 170.53125 C 193.558594 170.53125 192.257812 171.328125 191.515625 172.519531 L 186.621094 170.566406 C 186.621094 170.53125 186.621094 170.496094 186.621094 170.457031 C 186.621094 169.265625 185.664062 168.308594 184.46875 168.308594 C 183.511719 168.308594 182.699219 168.941406 182.429688 169.824219 L 178.6875 169.933594 C 178.34375 167.347656 176.484375 165.269531 174.027344 164.566406 Z M 190.792969 144.898438 L 195.671875 150.03125 C 195.507812 150.339844 195.402344 150.699219 195.402344 151.082031 C 195.402344 151.53125 195.546875 151.964844 195.78125 152.328125 L 192.65625 156.359375 C 191.96875 155.960938 191.15625 155.742188 190.304688 155.742188 C 188.570312 155.742188 187.054688 156.683594 186.222656 158.058594 L 179.539062 155.273438 C 179.628906 154.929688 179.664062 154.550781 179.664062 154.171875 C 179.664062 152.996094 179.210938 151.929688 178.488281 151.117188 L 183.402344 145.152344 C 184.414062 145.820312 185.609375 146.199219 186.910156 146.199219 C 188.371094 146.199219 189.710938 145.710938 190.792969 144.878906 Z M 219.144531 157.96875 L 217.515625 152.328125 C 218.457031 151.929688 219.25 151.277344 219.847656 150.464844 L 225.953125 153.882812 C 225.753906 154.386719 225.648438 154.949219 225.648438 155.527344 C 225.648438 155.925781 225.703125 156.304688 225.792969 156.683594 L 220.839844 158.761719 C 220.425781 158.273438 219.828125 157.96875 219.144531 157.949219 Z M 208.050781 208.746094 L 207.089844 214.675781 C 205.828125 214.820312 204.832031 215.90625 204.832031 217.207031 C 204.832031 218.398438 205.644531 219.394531 206.75 219.683594 L 206.839844 224.164062 C 206.800781 224.183594 206.75 224.203125 206.710938 224.21875 L 203.550781 221.582031 C 203.695312 221.273438 203.765625 220.929688 203.765625 220.566406 C 203.765625 219.265625 202.773438 218.199219 201.507812 218.074219 L 200.964844 215.074219 C 202.773438 214.457031 204.074219 212.742188 204.074219 210.734375 C 204.074219 209.902344 203.855469 209.125 203.460938 208.457031 L 205.210938 207.066406 C 205.988281 207.84375 206.964844 208.4375 208.066406 208.726562 Z M 152.128906 166.933594 L 147.269531 173.675781 C 146.871094 173.515625 146.4375 173.40625 145.984375 173.40625 C 144.214844 173.40625 142.769531 174.851562 142.769531 176.621094 C 142.769531 177.527344 143.148438 178.359375 143.761719 178.9375 L 138.6875 187.214844 C 138.054688 186.925781 137.347656 186.78125 136.609375 186.78125 C 136.554688 186.78125 136.515625 186.78125 136.464844 186.78125 L 136.066406 184.34375 C 138 183.726562 139.390625 181.917969 139.390625 179.804688 C 139.390625 177.636719 137.945312 175.808594 135.957031 175.230469 L 136.246094 173.117188 C 136.335938 173.117188 136.425781 173.117188 136.535156 173.117188 C 140.382812 173.117188 143.511719 169.988281 143.511719 166.136719 C 143.511719 165.957031 143.511719 165.792969 143.492188 165.613281 L 150.519531 164.386719 C 150.828125 165.378906 151.386719 166.265625 152.128906 166.953125 Z M 157.402344 180.996094 C 157.402344 178.738281 159.246094 176.894531 161.503906 176.894531 C 163.765625 176.894531 165.605469 178.738281 165.605469 180.996094 C 165.605469 183.257812 163.765625 185.101562 161.503906 185.101562 C 159.246094 185.101562 157.402344 183.257812 157.402344 180.996094 Z M 161.792969 153.464844 C 161.792969 152.273438 162.753906 151.316406 163.945312 151.316406 C 165.136719 151.316406 166.09375 152.273438 166.09375 153.464844 C 166.09375 154.640625 165.136719 155.617188 163.945312 155.617188 C 162.769531 155.617188 161.792969 154.660156 161.792969 153.464844 Z M 161.792969 153.464844 " clip-rule="evenodd"/></clipPath><linearGradient x1="39.985145" gradientTransform="matrix(1.806808, 0, 0, 1.807704, 129.561265, 133.418857)" y1="-0.154477" x2="39.673595" gradientUnits="userSpaceOnUse" y2="52.365342" id="728137ce91"><stop stop-opacity="1" stop-color="rgb(32.199097%, 44.299316%, 100%)" offset="0"/><stop stop-opacity="1" stop-color="rgb(32.199097%, 44.299316%, 100%)" offset="0.00726688"/><stop stop-opacity="1" stop-color="rgb(32.199097%, 44.299316%, 100%)" offset="0.0625"/><stop stop-opacity="1" stop-color="rgb(32.199097%, 44.299316%, 100%)" offset="0.09375"/><stop stop-opacity="1" stop-color="rgb(32.199097%, 44.299316%, 100%)" offset="0.109375"/><stop stop-opacity="1" stop-color="rgb(32.211304%, 44.206238%, 99.978638%)" offset="0.117188"/><stop stop-opacity="1" stop-color="rgb(32.244873%, 43.948364%, 99.92218%)" offset="0.125"/><stop stop-opacity="1" stop-color="rgb(32.289124%, 43.617249%, 99.848938%)" offset="0.132812"/><stop stop-opacity="1" stop-color="rgb(32.333374%, 43.287659%, 99.775696%)" offset="0.140625"/><stop stop-opacity="1" stop-color="rgb(32.377625%, 42.956543%, 99.702454%)" offset="0.148438"/><stop stop-opacity="1" stop-color="rgb(32.421875%, 42.626953%, 99.629211%)" offset="0.15625"/><stop stop-opacity="1" stop-color="rgb(32.4646%, 42.295837%, 99.555969%)" offset="0.164062"/><stop stop-opacity="1" stop-color="rgb(32.50885%, 41.964722%, 99.484253%)" offset="0.171875"/><stop stop-opacity="1" stop-color="rgb(32.553101%, 41.635132%, 99.411011%)" offset="0.179688"/><stop stop-opacity="1" stop-color="rgb(32.597351%, 41.304016%, 99.337769%)" offset="0.1875"/><stop stop-opacity="1" stop-color="rgb(32.641602%, 40.974426%, 99.264526%)" offset="0.195313"/><stop stop-opacity="1" stop-color="rgb(32.685852%, 40.643311%, 99.191284%)" offset="0.203125"/><stop stop-opacity="1" stop-color="rgb(32.728577%, 40.313721%, 99.118042%)" offset="0.210937"/><stop stop-opacity="1" stop-color="rgb(32.772827%, 39.982605%, 99.0448%)" offset="0.21875"/><stop stop-opacity="1" stop-color="rgb(32.817078%, 39.651489%, 98.973083%)" offset="0.226562"/><stop stop-opacity="1" stop-color="rgb(32.861328%, 39.321899%, 98.899841%)" offset="0.234375"/><stop stop-opacity="1" stop-color="rgb(32.905579%, 38.990784%, 98.826599%)" offset="0.242188"/><stop stop-opacity="1" stop-color="rgb(32.949829%, 38.661194%, 98.753357%)" offset="0.25"/><stop stop-opacity="1" stop-color="rgb(32.992554%, 38.330078%, 98.680115%)" offset="0.257812"/><stop stop-opacity="1" stop-color="rgb(33.036804%, 38.000488%, 98.606873%)" offset="0.265625"/><stop stop-opacity="1" stop-color="rgb(33.081055%, 37.669373%, 98.53363%)" offset="0.273438"/><stop stop-opacity="1" stop-color="rgb(33.125305%, 37.338257%, 98.461914%)" offset="0.28125"/><stop stop-opacity="1" stop-color="rgb(33.169556%, 37.008667%, 98.388672%)" offset="0.289062"/><stop stop-opacity="1" stop-color="rgb(33.213806%, 36.677551%, 98.31543%)" offset="0.296875"/><stop stop-opacity="1" stop-color="rgb(33.256531%, 36.347961%, 98.242188%)" offset="0.304688"/><stop stop-opacity="1" stop-color="rgb(33.300781%, 36.016846%, 98.168945%)" offset="0.3125"/><stop stop-opacity="1" stop-color="rgb(33.345032%, 35.687256%, 98.095703%)" offset="0.320313"/><stop stop-opacity="1" stop-color="rgb(33.389282%, 35.35614%, 98.022461%)" offset="0.328125"/><stop stop-opacity="1" stop-color="rgb(33.433533%, 35.02655%, 97.950745%)" offset="0.335938"/><stop stop-opacity="1" stop-color="rgb(33.477783%, 34.695435%, 97.877502%)" offset="0.34375"/><stop stop-opacity="1" stop-color="rgb(33.520508%, 34.364319%, 97.80426%)" offset="0.351563"/><stop stop-opacity="1" stop-color="rgb(33.564758%, 34.034729%, 97.731018%)" offset="0.359375"/><stop stop-opacity="1" stop-color="rgb(33.609009%, 33.703613%, 97.657776%)" offset="0.367188"/><stop stop-opacity="1" stop-color="rgb(33.653259%, 33.374023%, 97.584534%)" offset="0.375"/><stop stop-opacity="1" stop-color="rgb(33.69751%, 33.042908%, 97.511292%)" offset="0.382813"/><stop stop-opacity="1" stop-color="rgb(33.74176%, 32.713318%, 97.439575%)" offset="0.390625"/><stop stop-opacity="1" stop-color="rgb(33.784485%, 32.382202%, 97.366333%)" offset="0.398438"/><stop stop-opacity="1" stop-color="rgb(33.828735%, 32.051086%, 97.293091%)" offset="0.40625"/><stop stop-opacity="1" stop-color="rgb(33.872986%, 31.721497%, 97.219849%)" offset="0.414063"/><stop stop-opacity="1" stop-color="rgb(33.917236%, 31.390381%, 97.146606%)" offset="0.421875"/><stop stop-opacity="1" stop-color="rgb(33.961487%, 31.060791%, 97.073364%)" offset="0.429688"/><stop stop-opacity="1" stop-color="rgb(34.005737%, 30.729675%, 97.001648%)" offset="0.4375"/><stop stop-opacity="1" stop-color="rgb(34.049988%, 30.400085%, 96.928406%)" offset="0.445312"/><stop stop-opacity="1" stop-color="rgb(34.092712%, 30.06897%, 96.855164%)" offset="0.453125"/><stop stop-opacity="1" stop-color="rgb(34.136963%, 29.737854%, 96.781921%)" offset="0.460938"/><stop stop-opacity="1" stop-color="rgb(34.181213%, 29.408264%, 96.708679%)" offset="0.46875"/><stop stop-opacity="1" stop-color="rgb(34.225464%, 29.077148%, 96.635437%)" offset="0.476563"/><stop stop-opacity="1" stop-color="rgb(34.269714%, 28.747559%, 96.562195%)" offset="0.484375"/><stop stop-opacity="1" stop-color="rgb(34.313965%, 28.416443%, 96.490479%)" offset="0.492188"/><stop stop-opacity="1" stop-color="rgb(34.356689%, 28.086853%, 96.417236%)" offset="0.5"/><stop stop-opacity="1" stop-color="rgb(34.40094%, 27.755737%, 96.343994%)" offset="0.507812"/><stop stop-opacity="1" stop-color="rgb(34.44519%, 27.424622%, 96.270752%)" offset="0.515625"/><stop stop-opacity="1" stop-color="rgb(34.489441%, 27.095032%, 96.19751%)" offset="0.523438"/><stop stop-opacity="1" stop-color="rgb(34.533691%, 26.763916%, 96.124268%)" offset="0.53125"/><stop stop-opacity="1" stop-color="rgb(34.577942%, 26.434326%, 96.051025%)" offset="0.539062"/><stop stop-opacity="1" stop-color="rgb(34.620667%, 26.10321%, 95.979309%)" offset="0.546875"/><stop stop-opacity="1" stop-color="rgb(34.664917%, 25.773621%, 95.906067%)" offset="0.554688"/><stop stop-opacity="1" stop-color="rgb(34.709167%, 25.442505%, 95.832825%)" offset="0.5625"/><stop stop-opacity="1" stop-color="rgb(34.753418%, 25.111389%, 95.759583%)" offset="0.570312"/><stop stop-opacity="1" stop-color="rgb(34.797668%, 24.781799%, 95.68634%)" offset="0.578125"/><stop stop-opacity="1" stop-color="rgb(34.841919%, 24.450684%, 95.613098%)" offset="0.585938"/><stop stop-opacity="1" stop-color="rgb(34.884644%, 24.121094%, 95.539856%)" offset="0.59375"/><stop stop-opacity="1" stop-color="rgb(34.928894%, 23.789978%, 95.46814%)" offset="0.601562"/><stop stop-opacity="1" stop-color="rgb(34.973145%, 23.460388%, 95.394897%)" offset="0.609375"/><stop stop-opacity="1" stop-color="rgb(35.017395%, 23.129272%, 95.321655%)" offset="0.617188"/><stop stop-opacity="1" stop-color="rgb(35.061646%, 22.798157%, 95.248413%)" offset="0.625"/><stop stop-opacity="1" stop-color="rgb(35.105896%, 22.468567%, 95.175171%)" offset="0.632812"/><stop stop-opacity="1" stop-color="rgb(35.148621%, 22.137451%, 95.101929%)" offset="0.640625"/><stop stop-opacity="1" stop-color="rgb(35.192871%, 21.807861%, 95.028687%)" offset="0.648438"/><stop stop-opacity="1" stop-color="rgb(35.237122%, 21.476746%, 94.95697%)" offset="0.65625"/><stop stop-opacity="1" stop-color="rgb(35.281372%, 21.147156%, 94.883728%)" offset="0.664062"/><stop stop-opacity="1" stop-color="rgb(35.325623%, 20.81604%, 94.810486%)" offset="0.671875"/><stop stop-opacity="1" stop-color="rgb(35.369873%, 20.484924%, 94.737244%)" offset="0.679688"/><stop stop-opacity="1" stop-color="rgb(35.412598%, 20.155334%, 94.664001%)" offset="0.6875"/><stop stop-opacity="1" stop-color="rgb(35.456848%, 19.824219%, 94.590759%)" offset="0.695312"/><stop stop-opacity="1" stop-color="rgb(35.501099%, 19.494629%, 94.517517%)" offset="0.703125"/><stop stop-opacity="1" stop-color="rgb(35.545349%, 19.163513%, 94.445801%)" offset="0.710938"/><stop stop-opacity="1" stop-color="rgb(35.5896%, 18.833923%, 94.372559%)" offset="0.71875"/><stop stop-opacity="1" stop-color="rgb(35.63385%, 18.502808%, 94.299316%)" offset="0.726562"/><stop stop-opacity="1" stop-color="rgb(35.676575%, 18.171692%, 94.226074%)" offset="0.734375"/><stop stop-opacity="1" stop-color="rgb(35.720825%, 17.842102%, 94.152832%)" offset="0.742188"/><stop stop-opacity="1" stop-color="rgb(35.765076%, 17.510986%, 94.07959%)" offset="0.75"/><stop stop-opacity="1" stop-color="rgb(35.809326%, 17.181396%, 94.006348%)" offset="0.757812"/><stop stop-opacity="1" stop-color="rgb(35.853577%, 16.850281%, 93.934631%)" offset="0.765625"/><stop stop-opacity="1" stop-color="rgb(35.897827%, 16.520691%, 93.861389%)" offset="0.773438"/><stop stop-opacity="1" stop-color="rgb(35.940552%, 16.189575%, 93.788147%)" offset="0.78125"/><stop stop-opacity="1" stop-color="rgb(35.984802%, 15.859985%, 93.714905%)" offset="0.789062"/><stop stop-opacity="1" stop-color="rgb(36.029053%, 15.52887%, 93.641663%)" offset="0.796875"/><stop stop-opacity="1" stop-color="rgb(36.073303%, 15.197754%, 93.56842%)" offset="0.804688"/><stop stop-opacity="1" stop-color="rgb(36.117554%, 14.868164%, 93.496704%)" offset="0.8125"/><stop stop-opacity="1" stop-color="rgb(36.161804%, 14.537048%, 93.423462%)" offset="0.820312"/><stop stop-opacity="1" stop-color="rgb(36.204529%, 14.207458%, 93.35022%)" offset="0.828125"/><stop stop-opacity="1" stop-color="rgb(36.248779%, 13.876343%, 93.276978%)" offset="0.835938"/><stop stop-opacity="1" stop-color="rgb(36.29303%, 13.546753%, 93.203735%)" offset="0.84375"/><stop stop-opacity="1" stop-color="rgb(36.33728%, 13.215637%, 93.130493%)" offset="0.851563"/><stop stop-opacity="1" stop-color="rgb(36.381531%, 12.884521%, 93.057251%)" offset="0.859375"/><stop stop-opacity="1" stop-color="rgb(36.425781%, 12.554932%, 92.985535%)" offset="0.867188"/><stop stop-opacity="1" stop-color="rgb(36.468506%, 12.223816%, 92.912292%)" offset="0.875"/><stop stop-opacity="1" stop-color="rgb(36.512756%, 11.894226%, 92.83905%)" offset="0.882813"/><stop stop-opacity="1" stop-color="rgb(36.557007%, 11.56311%, 92.765808%)" offset="0.890625"/><stop stop-opacity="1" stop-color="rgb(36.601257%, 11.233521%, 92.692566%)" offset="0.898438"/><stop stop-opacity="1" stop-color="rgb(36.645508%, 10.902405%, 92.619324%)" offset="0.90625"/><stop stop-opacity="1" stop-color="rgb(36.689758%, 10.571289%, 92.546082%)" offset="0.914062"/><stop stop-opacity="1" stop-color="rgb(36.732483%, 10.241699%, 92.474365%)" offset="0.921875"/><stop stop-opacity="1" stop-color="rgb(36.776733%, 9.910583%, 92.401123%)" offset="0.929688"/><stop stop-opacity="1" stop-color="rgb(36.820984%, 9.580994%, 92.327881%)" offset="0.9375"/><stop stop-opacity="1" stop-color="rgb(36.865234%, 9.249878%, 92.254639%)" offset="0.945312"/><stop stop-opacity="1" stop-color="rgb(36.8927%, 9.042358%, 92.208862%)" offset="0.953125"/><stop stop-opacity="1" stop-color="rgb(36.898804%, 8.999634%, 92.199707%)" offset="0.96875"/><stop stop-opacity="1" stop-color="rgb(36.898804%, 8.999634%, 92.199707%)" offset="0.992733"/><stop stop-opacity="1" stop-color="rgb(36.898804%, 8.999634%, 92.199707%)" offset="1"/></linearGradient></defs><g clip-path="url(#a8d6043e57)"><g clip-path="url(#13317cca3a)"><path fill="url(#728137ce91)" d="M 129.5625 133.402344 L 129.5625 227.65625 L 245.8125 227.65625 L 245.8125 133.402344 Z M 129.5625 133.402344 " fill-rule="nonzero"/></g></g></svg>